<svg xmlns="http://www.w3.org/2000/svg" viewBox="551 269 239 72">
  <defs>
    <style>
      .cls-1 {
        fill: #c3d3e9;
      }

      .cls-1, .cls-2 {
        fill-rule: evenodd;
      }

      .cls-2 {
        fill: #fd7044;
      }
    </style>
  </defs>
  <g id="Pcase_logo" transform="translate(551.406 269.014)">
    <path id="PCASE_copy_2" data-name="PCASE copy 2" class="cls-1" d="M-.112,96.1H6.33V80.579h3.846c10.38,0,16.017-5.688,16.017-14.354,0-8.575-5.726-13.991-15.21-13.991H-.112V96.1ZM6.33,75.162V57.65h4.384c6.174,0,8.947,3.521,8.947,8.756s-2.774,8.756-9.037,8.756Z" transform="translate(-0.207 -36.728)"/>
    <path id="PCASE_copy_3" data-name="PCASE copy 3" class="cls-2" d="M236.715,21.172H220.252v13.54h16.105v5.326H220.252V54.21h17.716v5.416H213.81V15.756h24.784Zm-57.08,39.356a23.3,23.3,0,0,1-11.989-3.159l2.147-5.055a20.146,20.146,0,0,0,9.753,2.708c4.295,0,8.5-1.986,8.5-6.77,0-10.652-19.147-7.221-19.147-21.574,0-6.5,4.832-11.644,13.332-11.644a25.2,25.2,0,0,1,10.2,2.076v5.958a20.346,20.346,0,0,0-9.842-2.618c-3.489,0-7.158,1.625-7.158,5.777,0,9.749,19.147,6.409,19.147,21.483C194.577,56.105,187.866,60.529,179.635,60.529Zm56.878,8.364v3.343H140.005l-6.985-19.222H107.17l-6.927,19.222H-.406V68.893H89.9l7.028-18.705v-.516h.194L115.7.236h8.4l26.624,68.657h85.792ZM123.989,28.159c-2.046-5.867-3.016-9.126-3.769-11.517H120c-.754,2.5-1.831,5.758-3.876,11.517l-7.754,21.512h23.431ZM63.2,55.022a20.734,20.734,0,0,0,11.006-3.069l1.969,4.874a27.876,27.876,0,0,1-13.689,3.7c-11.9,0-20.669-8.485-20.669-22.116,0-13.9,9.216-23.379,22.011-23.379a22.873,22.873,0,0,1,10.826,2.527v5.778a19.572,19.572,0,0,0-10.2-2.8c-9.484,0-16.016,7.313-16.016,17.512,0,10.561,6.261,16.97,14.762,16.97Z" transform="translate(0 -0.25)"/>
  </g>
</svg>
